<svg width="146" height="32" viewBox="0 0 146 32" fill="none" xmlns="http://www.w3.org/2000/svg">
<path d="M15.797 11.2853L9.38264 25.6H25.024L36.4946 0H33.2848C23.6821 0 19.71 2.56534 15.797 11.2853Z" fill="#10B981"/>
<path d="M3.36551 5.33333H0L9.38801 25.6H25.0293L20.7728 16.4107C16.8007 7.84001 12.8662 5.33333 3.36551 5.33333Z" fill="#34D399"/>
<path d="M57.2352 9.10933H51.2986L48.4269 25.6H43.6229L46.5107 9.10933H40.6707L41.3416 5.33867H57.8954L57.2352 9.10933Z" fill="#111827"/>
<path d="M58.9851 25.8773C57.6325 25.8667 56.4247 25.552 55.3619 24.9227C54.3045 24.2987 53.4993 23.424 52.9626 22.304C52.4204 21.184 52.2057 19.952 52.3185 18.608L52.3614 18.2187C52.6137 15.744 53.4779 13.7813 54.9594 12.3413C56.4408 10.896 58.2551 10.2027 60.4022 10.2613C61.7011 10.2827 62.8122 10.608 63.7355 11.2427C64.6587 11.8773 65.335 12.7573 65.7644 13.8773C66.1939 14.9973 66.3334 16.256 66.1831 17.648L65.9147 19.5573H56.8971C56.9132 20.3467 57.1386 20.9867 57.568 21.4773C57.9974 21.968 58.6255 22.2293 59.4467 22.256C60.7833 22.2933 61.9802 21.7813 63.0484 20.7253L64.9808 23.264C64.4118 24.0693 63.6174 24.6987 62.5921 25.1573C61.5723 25.616 60.4505 25.8507 59.2374 25.872H58.9851V25.8773ZM60.1069 13.8827C59.4521 13.8667 58.8885 14.0693 58.4054 14.4907C57.9223 14.9173 57.509 15.6267 57.1493 16.624H61.7548L61.8407 16.224C61.8944 15.8987 61.9051 15.5947 61.8675 15.312C61.7119 14.384 61.1214 13.9093 60.1069 13.8827Z" fill="#111827"/>
<path d="M74.9055 21.2853C75.029 20.672 74.5513 20.2133 73.4777 19.9093L72.4847 19.6587C70.8583 19.232 69.6721 18.6347 68.9152 17.8613C68.1584 17.0933 67.8041 16.176 67.8524 15.12C67.9007 13.6747 68.5449 12.496 69.7902 11.5947C71.0355 10.688 72.5545 10.2453 74.3473 10.2667C76.1293 10.288 77.5733 10.736 78.6844 11.616C79.7901 12.496 80.3537 13.6853 80.3698 15.1787L75.7751 15.1627C75.8126 13.9733 75.2866 13.3813 74.1916 13.3813C73.7246 13.3813 73.2898 13.52 72.8873 13.792C72.4847 14.064 72.2485 14.432 72.1734 14.8853C72.0124 15.6373 72.6833 16.1493 74.1755 16.432C75.4745 16.736 76.4782 17.0933 77.1868 17.4987C77.8953 17.904 78.4374 18.4 78.8132 18.992C79.1889 19.584 79.3607 20.2987 79.3338 21.136C79.307 22.048 79.0064 22.8587 78.4374 23.5733C77.8685 24.288 77.0419 24.8587 75.963 25.2853C74.8841 25.712 73.7139 25.9094 72.4525 25.8827C71.3575 25.872 70.343 25.648 69.4037 25.2C68.4643 24.752 67.7343 24.1493 67.2029 23.3813C66.6769 22.6187 66.4032 21.7387 66.3817 20.7467L70.6651 20.7733C70.6812 22.1067 71.3575 22.768 72.6833 22.752C73.2523 22.752 73.7407 22.624 74.1379 22.368C74.5513 22.1067 74.8035 21.7493 74.9055 21.2853Z" fill="#111827"/>
<path d="M88.9902 6.8L88.33 10.544H90.7508L90.1765 13.8027H87.761L86.5855 20.72C86.5211 21.1947 86.5479 21.552 86.6768 21.792C86.8056 22.032 87.1169 22.1653 87.6215 22.1813C87.8201 22.192 88.2173 22.1653 88.8238 22.112L88.4857 25.5093C87.7127 25.76 86.8861 25.8773 86.0058 25.856C84.578 25.8347 83.5099 25.4187 82.796 24.6027C82.0874 23.7867 81.7976 22.6773 81.9264 21.2747L83.161 13.8027H81.2823L81.8405 10.544H83.7192L84.3794 6.8H88.9902Z" fill="#111827"/>
<path d="M91.0407 25.6L93.1018 13.7973H90.9709L91.5291 10.5387L93.6601 10.5227L93.8426 9.2C94.0734 7.59467 94.7175 6.32001 95.7749 5.37067C96.9021 4.36801 98.3729 3.87733 100.187 3.89333C100.654 3.89333 101.416 3.99467 102.468 4.20267L102.119 7.68C101.69 7.568 101.325 7.51467 101.024 7.51467C100.343 7.51467 99.7792 7.66933 99.3391 7.97867C98.8935 8.288 98.6144 8.736 98.491 9.31734L98.2816 10.5387H101.153L100.595 13.7973H97.7234L95.6622 25.6H91.0407Z" fill="#111827"/>
<path d="M109.087 23.9573C107.959 25.2853 106.596 25.9307 104.997 25.8933C103.51 25.872 102.393 25.36 101.642 24.3467C100.89 23.3333 100.6 21.9787 100.767 20.2827L102.404 10.5387H107.009L105.34 20.3467C105.313 20.6187 105.313 20.864 105.34 21.0827C105.404 21.8454 105.861 22.24 106.698 22.2667C107.67 22.304 108.496 21.9253 109.178 21.1253L111.057 10.5387H115.694L113.059 25.5947H108.775L109.087 23.9573Z" fill="#111827"/>
<path d="M120.412 25.6H115.791L119.516 4.22401H124.138L120.412 25.6Z" fill="#111827"/>
<path d="M127.755 25.6H123.134L126.859 4.22401H131.481L127.755 25.6Z" fill="#111827"/>
<path d="M136.993 18.976L140.917 10.544H146L136.966 28.1333C136.301 29.4987 135.538 30.48 134.674 31.088C133.81 31.696 132.78 32 131.588 32C131.056 32 130.38 31.8987 129.559 31.696L129.908 28.3413H130.439C131.008 28.3413 131.507 28.2507 131.937 28.0693C132.366 27.888 132.726 27.536 133.016 27.0187L133.826 25.488L131.405 10.544H136.166L136.993 18.976Z" fill="#111827"/>
</svg>
